<svg id="Camada_1" data-name="Camada 1" xmlns="http://www.w3.org/2000/svg" xmlns:xlink="http://www.w3.org/1999/xlink" viewBox="0 0 411.06 399"><defs><style>.cls-1,.cls-2{fill:none;stroke-miterlimit:10;stroke-width:4.97px;}.cls-1{stroke:url(#Gradiente_sem_nome_69);}.cls-2{stroke:url(#Gradiente_sem_nome_69-2);}</style><linearGradient id="Gradiente_sem_nome_69" x1="24.49" y1="193.67" x2="390.48" y2="193.67" gradientUnits="userSpaceOnUse"><stop offset="0" stop-color="#e43820"/><stop offset="0.2" stop-color="#b12253"/><stop offset="0.4" stop-color="#814358"/><stop offset="0.6" stop-color="#406580"/><stop offset="0.8" stop-color="#177ab7"/><stop offset="1" stop-color="#6bc4d6"/></linearGradient><linearGradient id="Gradiente_sem_nome_69-2" x1="25.99" y1="205.26" x2="391.48" y2="205.26" xlink:href="#Gradiente_sem_nome_69"/></defs><title>Prancheta 1</title><path id="Degradê_com_linhas" data-name="Degradê com linhas" class="cls-1" d="M172.23,311.2c-.39,2.63-5.7,34.75-29.41,43.81-24,9.2-49.87-11.86-60.37-20.41-9.65-7.87-15.33-15.53-20.37-22.41a180.57,180.57,0,0,1-28.51-61.11c-4-15.57-13.6-55.18,2-101.84,16-47.75,48.71-73.88,61.11-83.51,11.85-9.21,52-39.48,111-39.94,6.06-.05,92.58.74,145.69,72.53,32.49,43.91,34.92,90.66,34.63,110-.63,42.93-16.44,73.55-24.44,88.6a174.77,174.77,0,0,1-45.83,54c-16.07,12.5-20.15,10.9-21.39,10.19-9.72-5.66,3.05-46.65,9.17-63.15,2.57-6.93,9.18-23.59,16.29-39.72,1.44-3.25,4.05-9.11,7.13-17.31,1.35-3.58,4.36-11.82,7.13-21.39a238.71,238.71,0,0,0,8-38.33c3-26.37,5.49-47.18-7-64.53-2-2.78-14.37-20-30.46-19.32-11.49.48-15.55,9.74-40.81,34.1-18.35,17.7-27.73,26.64-38,30.74-3.61,1.44-32.72,12.57-55.67-2.95-23.72-16.05-26.71-51-18.28-74.88,8.94-25.32,34.43-49,60-46.26,10.49,1.12,25.89,7.19,31.3,20.69,4.76,11.88-.58,23.64-2.79,28.5C233.85,105.89,215.84,113,211,114.66c-9,3.2-16.75,5.64-23.91,7.65a386.79,386.79,0,0,1-39.25,9.12c-78.24,14.81-102.29,62-102.29,62-2.27,4.54-12.7,25.48-4.12,40A24.48,24.48,0,0,0,52.8,243.75c1.79.75,6.87,2.57,17.7.19,11.88-2.61,20.1-7.93,32.79-16.4a176.89,176.89,0,0,0,16.4-11.92c7.42-6.14,9.9-9.47,23.43-22.13,9.66-9,13.49-12.12,19-12.15a16.49,16.49,0,0,1,11,4.28c3.34,3.24,4.33,7.53,4.9,17.94a213.47,213.47,0,0,1,0,23.75c-2,29.47,1.21-5.33-1.73,29.3-2.2,26-4.92,56.22-4.47,56.27s4.59-40.66,13.88-63.21c2.7-6.55,9.93-21.51,10.34-22.36a119,119,0,0,1,5.73-10.62,84,84,0,0,1,5.87-8.66c4.64-5.93,10-12.85,14.67-11.74,2,.48,3.27,2.31,4.47,4.05.82,1.18,1.77,2.94,2.8,8.25a77.17,77.17,0,0,1,1.12,8.24c.71,7.73,1.07,11.59,1.12,12.44.42,8,.19,15.16,0,19.14-.3,6.07-.7,8.46,0,8.67,1.07.32,3.32-4.86,8.1-14.4,4.19-8.36,6.29-12.54,8.1-15.51,6.29-10.31,17.74-22.79,23.34-20.4,2.8,1.19,4.83,6.39,5.45,9.5.19,1,.29,2,.42,3.22a60.49,60.49,0,0,1,.28,7.82c-.25,10.08-.84,15.23-.84,15.23C275.31,252.37,272,273.7,270,295c-1.12,11.8-1.43,20.61,4.06,25.43a12.08,12.08,0,0,0,6.56,2.93c7.36.73,13.3-6.44,16.63-10.48a47,47,0,0,0,8.25-14.39"/><circle class="cls-2" cx="208.74" cy="205.26" r="180.26"/></svg>