<svg id="Camada_1" data-name="Camada 1" xmlns="http://www.w3.org/2000/svg" viewBox="0 0 428 437"><defs><style>.cls-1{fill:none;stroke:#fff;stroke-miterlimit:10;stroke-width:4.97px;}</style></defs><title>Prancheta 2</title><path id="Degradê_com_linhas" data-name="Degradê com linhas" class="cls-1" d="M191.23,323.2c-.39,2.63-5.7,34.75-29.41,43.82-24,9.19-49.87-11.87-60.37-20.42-9.65-7.87-15.33-15.53-20.37-22.41a180.48,180.48,0,0,1-28.51-61.1c-4-15.58-13.6-55.19,2-101.85,16-47.75,48.71-73.88,61.11-83.51,11.85-9.21,52-39.48,111-39.94,6.06,0,92.58.74,145.69,72.53,32.49,43.92,34.92,90.66,34.63,110-.63,42.93-16.44,73.55-24.44,88.61a174.9,174.9,0,0,1-45.83,54c-16.07,12.5-20.15,10.91-21.39,10.19-9.72-5.66,3.05-46.65,9.17-63.14,2.57-6.93,9.18-23.59,16.29-39.72,1.44-3.26,4.05-9.12,7.13-17.32,1.35-3.58,4.36-11.82,7.13-21.38a239.16,239.16,0,0,0,8-38.34c3-26.37,5.49-47.17-7-64.53-2-2.77-14.37-20-30.46-19.31-11.49.47-15.55,9.73-40.81,34.09-18.35,17.71-27.73,26.64-38,30.75-3.61,1.44-32.72,12.56-55.67-3-23.72-16-26.71-51-18.28-74.87,8.94-25.33,34.43-49,60-46.26,10.49,1.11,25.89,7.18,31.3,20.68,4.76,11.88-.58,23.64-2.79,28.5C252.85,117.89,234.84,125,230,126.66c-9,3.2-16.75,5.64-23.91,7.65a386.79,386.79,0,0,1-39.25,9.12c-78.24,14.81-102.29,62-102.29,62-2.27,4.55-12.7,25.48-4.12,40A24.48,24.48,0,0,0,71.8,255.76c1.79.74,6.87,2.57,17.7.18,11.88-2.61,20.1-7.93,32.79-16.39a179,179,0,0,0,16.4-11.93c7.42-6.14,9.9-9.47,23.43-22.12,9.66-9,13.49-12.13,19-12.16a16.53,16.53,0,0,1,11,4.29c3.34,3.23,4.33,7.53,4.9,17.93a213.47,213.47,0,0,1,0,23.75c-2,29.47,1.21-5.33-1.73,29.3-2.2,26-4.92,56.22-4.47,56.27s4.59-40.66,13.88-63.21c2.7-6.55,9.93-21.51,10.34-22.36a119,119,0,0,1,5.73-10.62,84,84,0,0,1,5.87-8.66c4.64-5.93,10-12.85,14.67-11.74,2,.48,3.27,2.31,4.47,4.05.82,1.18,1.77,2.94,2.8,8.25a77.17,77.17,0,0,1,1.12,8.24c.71,7.73,1.07,11.6,1.12,12.44.42,8,.19,15.16,0,19.14-.3,6.08-.7,8.46,0,8.67,1.07.32,3.32-4.86,8.1-14.39,4.19-8.36,6.29-12.54,8.1-15.52,6.29-10.31,17.74-22.79,23.34-20.4,2.8,1.2,4.83,6.39,5.45,9.5.19,1,.29,2,.42,3.22a60.49,60.49,0,0,1,.28,7.82c-.25,10.08-.84,15.24-.84,15.24-1.4,9.82-4.69,31.15-6.71,52.4-1.12,11.81-1.43,20.62,4.06,25.43a12.07,12.07,0,0,0,6.56,2.94c7.36.72,13.3-6.45,16.63-10.49a47,47,0,0,0,8.25-14.39"/><circle class="cls-1" cx="227.74" cy="217.26" r="180.26"/></svg>