<?xml version="1.0" encoding="utf-8"?>
<!-- Generator: Adobe Illustrator 22.0.0, SVG Export Plug-In . SVG Version: 6.00 Build 0)  -->
<svg version="1.1" id="Camada_1" xmlns="http://www.w3.org/2000/svg" xmlns:xlink="http://www.w3.org/1999/xlink" x="0px" y="0px"
	 viewBox="0 0 1366 768" style="enable-background:new 0 0 1366 768;" xml:space="preserve">
<style type="text/css">
	.st0{fill:none;stroke:#000000;stroke-width:8.7814;stroke-miterlimit:10;}
</style>
<path id="Degradê_com_linhas_13_" class="st0" d="M296.7,507.5c-1.1,5.2-6.7,28.1-28.9,43c-21.8,14.7-44.6,11.5-51.6,10.4
	c-28.8-4.4-45.6-24.3-53.2-33.5c-23.2-27.6-26.1-59.1-27.4-76.8c-3.9-51.1,16.1-90.1,23.6-104.3c29.3-55.4,96.8-122.1,172.3-119.1
	c74.6,3,104.8,71.6,152.5,53.4c37.7-14.4,38-65,83.2-73.9c1.9-0.4,29.1-5.3,50.7,11.1c31.2,23.8,34.6,80.3,12.7,97.3
	c-10,7.8-27.5,8.9-37.9,0.5c-11.4-9.2-11.3-27.1-8.2-37.9c7.5-26.6,41.4-42.7,69.7-42.3c30.6,0.5,52.9,20.3,65.3,31.3
	c32.9,29.2,30.6,53.6,59.3,64.8c2.5,1,23.6,8.9,45.6,0c33.9-13.7,53.4-61.1,37.9-93.3c-1.1-2.3-13.2-26.3-37.9-29.1
	c-23.4-2.6-48.1,15-52.7,39c-4,20.9,8.1,41.6,23.6,50.5c33.4,19.2,82.5-16.7,88.9-21.4c8.2-6,5.9-5.8,45-39.5
	c15.9-13.7,22.5-19.1,33.5-23.6c7-2.9,25.3-10.4,44.5-5.5c28.3,7.2,26.6,33.4,51,40.1c24.8,6.7,32.9-18.5,67-15.4
	c27.2,2.5,48.8,21.1,58.7,29.6c4.1,3.5,13.3,11.9,22.5,24.7c0.7,1,2,2.7,3.5,5c6.9,10.2,21.9,32.9,22.2,57.4
	c0.3,21.5-10.8,37.4-21.7,52.9c-15,21.4-34.4,36.4-34.1,36.7c0.1,0.1,3.5-2.8,5.9-5.1c4.3-4,7.3-7.4,9.1-9.4
	c8.1-9.1,12.2-13.6,13.2-14.8c6.7-8.1,11.6-14.1,16.1-22.3c6-11,10.5-19.3,8.3-27.4c-2.9-10.8-16.1-15.5-23.6-18.7
	c-29.3-12.2-47.5,4.5-83.4-7.3c-9.1-3-15.7-6.6-19.8-13.2c-5.2-8.3-6.6-21.5,0.7-31.5c5.1-7,13.7-11.2,22-11
	c19.3,0.5,29.8,24.7,30.7,27.1c10.2,24.4,1.1,60.6-19.8,70.6c-32.9,15.8-91.1-35.6-99.3-24.7c-0.8,1.1-0.1,1.4-2,21
	c-0.2,1.8-1,9.9-1.1,9.9c-0.2,0,1-14.7,1.5-21c1.1-14.3,1.7-21.5,2.2-23.6c3.7-15.2,9.9-16.9,8.8-25.6c-1.2-9.2-9.1-15.4-13.9-19
	c-3.5-2.6-9.3-7-17.9-7.5c-2.2-0.1-12.6-0.7-20.2,6.9c-1.1,1.1-10,10.2-6.3,19.3c2.2,5.3,8.7,10.8,14.8,8.8
	c5.8-1.9,8.2-9.4,7.1-14.8c-1.1-5.9-6.2-9.1-6.6-9.3c-3.5-2.1-9.8-4-41.2,6c-10.7,3.4-15.6,5.4-20.3,2.7c-4-2.3-7.6-7.9-6-13.7
	c1.5-5.7,7.3-9.1,12.1-8.8c6.4,0.5,10.3,7.9,12.6,12.6c14.8,29.4,2.6,68,0.5,74.1c-5.5,16.6-10.6,32.2-25.8,40.6
	c-1.7,0.9-18.4,9.9-29.6,2.7c-4.7-3-7.1-7.9-11.5-30.7c-6.7-34.4-5.2-43.2-13.2-49.9c-10.4-8.8-25.9-4.9-28-4.4
	c-19.5,4.9-30.1,25.7-30,40.2c0,4.4,1,11,1.1,11c0.1,0,0.5-6-1.6-11.5c-3.8-9.9-14-14.5-16.8-15.7c-13.8-6.2-27.2-2.1-31.5-0.7
	c-16.2,5.2-25.1,17.4-28.7,22.3c-19.3,27.1-13.7,59.4-16.9,59.4c-2.3,0.1-6.5-17.6-6.7-39.7c-0.2-22.1,3.3-33.8,3.8-66.4
	c0.2-11.2,0-20.6-6.6-28c-5.3-6-13.8-9.5-22-9.3c-13.2,0.3-21.1,10.5-41.7,31.8c-17.2,17.8-25.8,26.7-31.8,31.3
	c-20.5,15.7-59.7,31.9-91.7,15.9c-21.7-10.9-42.3-37.8-35.1-58.2c4.1-11.7,18.4-24,32.9-20.9c10.9,2.3,19.4,12.8,20.3,23.1
	c0.8,9.9-5.6,17.3-16.5,29.6c-10.6,12.1-15.2,11.9-24.7,24.1c-4.3,5.5-9.6,12.2-12.1,20.6c-2.9,9.8-1.5,20.4-0.5,27.9
	c0.3,2,0.9,6.6,0.1,12.5c-0.4,3-0.9,4-1.5,7.1c-0.9,4.9-0.8,8.6-0.7,13.9c0.1,4.7,0.4,13.3,3,21.4c0.9,2.8,2,5.6,2,5.6
	c0.8,1.9,1.5,3.4,3.4,7.5c2.2,4.7,2.8,5.8,3,6.3c4.2,9.1,0.3,19.9,1.8,20.3c1.2,0.4,5.4-7.4,10-20.9c6.4-18.6,8.1-32,9.3-31.8
	c1,0.1,0.3,8.3,1,25c0.5,11,1.1,14.4,1.4,16.1c1.4,7.4,3.8,20.1,10.8,21.7c4,0.9,8.5-2,8.9-2.3c2.4-1.7,3.7-3.8,4.5-5.2
	c7.1-12.2,8.4-15.8,8.4-15.8c4.2-11.5,7.3-21.5,8.4-25c2-6.5,5-16.2,9.9-28.3c2.9-7.1,3.9-8.9,4.4-8.8c1,0.3-0.9,8.3-2.6,21.5
	c-0.5,3.8-0.3,2.8-2.1,26.5c-1.1,14-1.5,19,0.8,25.8c1.2,3.5,3.3,9.5,8.2,11c3.5,1,7.4-0.5,8.2-0.8c1.2-0.5,2.9-1.3,5.5-3.6
	c4.2-3.7,6.7-7.8,7.4-9.1c6.2-11.2,15.3-58.2,25-86.7c4.6-13.7,8.3-20.2,13.7-25.8c3-3.1,17.5-18.2,33.4-13.8
	c13.1,3.6,18.7,18.1,19.8,20.9c4,10.2,2.6,20,2.7,20c0.1,0,0.5-6.1-1.2-13.7c-0.8-3.7-2-9-5.5-14.3c-0.9-1.4-7.8-11.5-18.5-13.5
	c-16.3-3.2-30.6,14.4-34,18.7c-8.6,10.6-10.9,21.1-14.8,38.8c-3.3,15-5.7,25.7-3.9,39.8c1.1,9,4.6,37.4,22.2,43.1
	c12.5,4.1,27.5-4.7,29.2-5.8c3.6-2.2,6-4.4,9.1-7.1c8.9-8.1,14.2-16.3,16.5-20c14.1-23.1,22.3-53.8,25.1-53.2c1.7,0.4,1,11.9-0.5,48
	c-0.8,19.5-1.3,33.5,5.5,36.8c2.6,1.3,6.7,1.2,9.9,0c3.6-1.3,6.1-4,8-6.9c8.1-12.3,7.7-31,8-31c0.3,0-3.5,17.6,5.2,29.9
	c1.3,1.9,5.2,7.1,11.8,8.8c9.5,2.4,17.9-4,21.4-6.6c7.5-5.6,10.9-12.6,13.2-17.6c2.9-6.2,4.1-12.6,6.3-25.2
	c2.5-14.1,3.2-22.3,3.8-22.2c0.6,0,0.5,7.1,0.8,20c0.4,15.1,1.1,27.2,5.5,40.1c2,6,3.8,9.2,7.1,10.7c5,2.2,11.4-0.5,15.1-3.8
	c4.2-3.8,5.4-8.9,5.8-10.7c2.9-12.4,9.5-32.9,17.3-45c2.9-4.5,13-20.3,29.4-23.1c10.8-1.9,21.3,2.5,21.4,1.9
	c0.1-0.4-5.4-2.9-11.8-3.3c-11.6-0.7-20.3,5.4-23.9,8c-22.1,15.6-33.5,54.7-19.8,70.5c0.5,0.6,5.1,5.8,12.3,6.9
	c12.6,1.9,23.5-10.3,28-15.4c7.1-8,10.2-15.9,13.7-25c6.1-16,9-32.3,8.8-32.4c-0.4-0.1-7,39.4-2.7,59c0.7,3.3,2.1,7.8,6,10.4
	c3.5,2.3,8.3,2.8,12.3,1.4c7.8-2.7,11.2-12.1,17.8-30.7c1.4-3.9,1.9-5.9,2.2-6.9c0.7-2.9,0.8-4.2,1.7-7.2c0,0,0.7-2.4,1.8-5.2
	c3.9-9.9,7.3-18.4,15.9-25c2.6-2,9.6-7.2,19.8-7.7c7-0.3,13,1.8,12.9,2.2c-0.1,0.7-12.5-3.7-23.1-0.3c-25,8-39,60-23.1,75.5
	c5.1,4.9,13.2,6.1,14.5,6.3c0.8,0.1,12.9,1.5,22.8-6.6c1.4-1.1,5.4-4.8,8.5-11.5c11.1-24.2,20-122.7,16.2-122.7
	c-1.3,0-2.2,16.9-3.8,50.8c-0.7,14-3.7,82.2,12.3,88.6c5.2,2.1,9.9,0.8,9.9,0.8c4.1-1.1,6.7-4.1,8.8-6.9c7.7-9.9,11.7-20.8,14-27.2
	c4.2-11.7,2.8-9.9,6-18.4c6.3-16.4,11.2-21.9,15.1-25.2c6.6-5.7,11.2-5.7,12.3-5.7c0.6,0,6.6,0.3,10.2,4.8
	c4.8,6.2,1.7,15.8-2.2,21.1c-4,5.5-9.9,7.7-15.5,9.7c-11.5,4.2-17.8,2.1-20.9,7c-0.5,0.8-0.6,1.4-0.9,10.4
	c-0.3,9.1-0.4,13.6-0.2,15.2c0.3,1.9,2.1,13.6,8,16.5c14.3,7,51.1-37.4,61.7-50.2c0.7-0.8,3.2-3.9,6.9-8c3-3.3,4.7-5.1,9.1-9.7
	c7-7.3,10.3-10.9,10.3-10.9c0.1,0.1-13.8,14.7-32,35.7c-7.1,8.2-6.7,8.1-11.7,13.7c-21.1,23.7-30.4,29-39.5,29.1
	c-2.4,0-3.8,0-5.5-0.8c-12-6.1-4.8-40.8-7.4-41.2c-1.2-0.2-2.2,6.4-7.4,16.7c-1.6,3.1-3.7,7.1-6.9,11.5c-2.4,3.4-11,15.6-18.9,14.3
	c-4.2-0.7-6.8-4.9-8.5-8c-12.3-22.8-8.8-57.6-8.8-57.6c0,0,1.3,26.2-12.1,48c-4,6.5-7.9,10.4-12.6,12.9c-8.7,4.7-21.7,5.8-29.6-0.5
	c-9.7-7.7-8.5-23.8-11.3-23.6c-1.3,0.1-1.3,3.7-4.7,11.5c-2,4.8-3,7.1-4.9,9.3c-3.9,4.5-11.4,8.2-17,6.3
	c-7.6-2.5-9.5-14.3-10.7-22.5c-3.7-24.5,3.6-46.4,3.8-46.4c0.2,0-2.6,26.1-17.8,49.4c-2.2,3.3-13,19.4-26.1,20.6
	c-7.2,0.7-12.6-2.2-12.6-2.2c-2.2-1.4-4.9-3.5-7.1-6.6c-8.3-11.6-3.5-28.4-4.4-28.5c-1.2-0.2-4.5,27.7-16.2,35.1
	c-1.1,0.7-4.4,2.8-8.2,2.2c-4-0.6-6.5-3.8-7.4-4.9c-10.1-12.6-7.9-63.9-7.1-85.3c0.2-6,0.4-12.5,0.5-21.1
	c0.3-18.6-0.2-32.7-0.3-32.7c-0.1,0,0.8,20.7-0.8,49.1c-0.2,2.9-1.6,26.3-7.7,55.4c-2.6,12.5-5.1,18.5-9.6,24.4
	c-2.3,3.1-13,17.3-25.8,15.4c-7.9-1.2-13.8-8.2-14.8-9.3c-2.9-3.3-4.5-7.1-4.7-7.4c0,0-1-2.3-1.6-4.9c-0.8-3.2-2.3-15.9,6.3-32.9
	c4.5-9,10.7-21.2,23.6-26.9c11.1-4.9,22-2.7,22-3c0-0.3-9.2-2.2-19.2,1.6c-8.6,3.3-13.5,9.2-17.8,14.5c-6.2,7.7-9.5,15.2-11.3,19.8
	c-6.5,17.5-5.8,35.6-12.9,43.6c-0.7,0.7-2.4,2.6-5.2,3.8c-3.7,1.5-7.8,1.3-10.2,0.3c-6.6-3-6.6-16.4-6.6-22.8
	c0.3-36.4,3.4-62,1.4-62.6c-1.6-0.4-5.1,14.6-13.4,31.8c-3.6,7.3-26.1,53.9-56.8,55.4c-2.4,0.1-7.7,0.3-13.2-2.5
	c-11.1-5.7-14.6-19.4-16.9-29c-4-16.6-1.9-28.9-3.5-29.1c-1.2-0.1-2.6,7-7.5,24.9c-4.1,15-5.3,18.1-7.9,22c-1.4,2.1-10.3,14.9-19,13
	c-2.4-0.5-4.1-2-5.4-3.2c-4.8-4.4-5.7-10.4-6.3-15.4c-0.5-3.7-0.4-7.3,0.3-14.5c2-19.9,0.7-16.2,2.7-33.5c1.4-12.2,2.4-16.8,1.6-17
	c-1.1-0.3-4.6,9.9-9.7,25c-3.4,10-7.4,19.9-10.3,30c0,0-2.4,8.6-9.4,20.8c-0.8,1.4-2.3,3.9-5.3,5.8c-0.2,0.1-5.3,3.3-9.5,2.2
	c-10.1-2.6-11.1-28.6-11.3-32c-0.1-3.1,0.3-8.4,1-19.1c0.6-8.4,1.2-14.8,1.9-22.6c1.3-13.2,1.5-12.7,1.9-19.5
	c0.2-2.3,0.5-6,1.1-13.3c0.7-8.6,1.1-11.7,3.6-14.3c0.1-0.1,0.2-0.2,0.2-0.2c1.4-1.3,3-1.7,3.4-1.8c3.5-0.9,34.6-12.7,34.8-12
	c0,0.1-1.2,0.6-3.8,1.7c-1.4,0.6-3.6,1.4-6.4,2.2c-0.1,0-0.2,0-0.2,0.1c-2.8,0.8-7.9,2.7-18.1,6.3c-6.7,2.4-8.5,3.2-10,2.1
	c-0.1-0.1-0.2-0.1-0.2-0.1c-1-0.9-1.4-2.1-1.5-2.6c-0.5-1.8-0.2-4,0-6.6c0-0.4,0.1-1.8,0.2-4.7c0.1-3.9,0.2-5.8,0.1-5.9
	c-0.2,0-1.1,5.5-1.5,9.1c-0.9,7.3-1.4,10.9-1.4,11.1c0.1,0.4,0.2,1.2-0.3,1.9c-0.6,0.9-1.6,0.8-3.7,1.8c-0.7,0.3-1,0.6-1.5,0.8
	c-3.9,2.2-19,8.5-21.1,9.4c-5.4,2.3-9.1,3.9-9.1,3.9c0,0,4.2-1.6,9.5-4.2c14.3-6.9,21.6-10.1,21.7-10.1c0.9-0.5,3.7-2.1,4.4-1.4
	c0.4,0.4-0.3,1.4-0.8,3.2c-0.7,2.2-0.5,3.8-0.5,5.6c0,0.6-1.4,10.5-4.3,30.4c0,0,0,0,0,0c0,0.1-5.3,36.6-14.4,62.6
	c-0.2,0.7-3.3,9-9.1,13c-2.7,1.8-5.8,2.9-5.8,2.9c-3.1,1-5.7,1.2-5.8,1.1c0-0.1,4.8,0,8.9-3c2.8-2,4-4.7,4.7-6
	c1.9-4,2.3-8.5,1.2-14.3c-1.5-8.2-4.3-10.3-7.8-18.7c-7.6-18.2-5.9-36.5-4.5-42.4c0.1-0.5,0.4-1.8,0.3-1.8
	c-0.4-0.1-4.9,12.2-8.9,26.3c-0.1,0.5-0.3,1.3-1.1,4.1c-2.8,10-9.8,33.9-16.8,47.5c-1,2-3.2,6.1-7.5,7.5c-3.4,1.2-7.5,0.5-10-1.1
	c-4.9-3-7.1-11.2-1.6-61.1c1-8.7,1.4-13,1.9-16.3c4.4-29.8,10.5-39.2,14.8-59.7c4.7-22.3,9.7-46.2-3.3-64.2
	c-6.7-9.3-19.8-19.4-33.5-18.1c-11.3,1.1-14.8,9.1-40.1,33.5c-18,17.4-27.2,26.2-37.3,30.2c-3.5,1.4-32.1,12.3-54.7-2.9
	c-23.3-15.7-26.2-50-17.9-73.5c8.8-24.9,33.8-48.1,58.9-45.4c10.3,1.1,25.4,7.1,30.7,20.3c4.7,11.7-0.6,23.2-2.7,28
	c-8.3,18.3-26,25.2-30.7,26.9c-8.8,3.1-16.5,5.5-23.5,7.5c-14.8,4.2-22.3,5.9-38.5,9c-76.8,14.5-100.4,60.9-100.4,60.9
	c-2.2,4.5-12.5,25-4.1,39.3c0.8,1.4,4.2,7.2,11.2,10.1c1.8,0.7,6.7,2.5,17.4,0.2c11.7-2.6,19.7-7.8,32.2-16.1
	c5.4-3.6,10.1-6.7,16.1-11.7c7.3-6,9.7-9.3,23-21.7c9.5-8.9,13.2-11.9,18.7-11.9c0.7,0,6.5,0.1,10.8,4.2c3.3,3.2,4.2,7.4,4.8,17.6
	c0.7,13,0,22.8,0,23.3c-2,28.9,1.2-5.2-1.7,28.8c-2.2,25.5-4.8,55.2-4.4,55.2c0.5,0.1,4.5-39.9,13.6-62.1c2.6-6.4,9.7-21.1,10.2-22
	c1.2-2.4,2.9-6,5.6-10.4c1.4-2.3,3.2-5.2,5.8-8.5c4.6-5.8,9.9-12.6,14.4-11.5c2,0.5,3.2,2.3,4.4,4c0.8,1.2,1.7,2.9,2.7,8.1
	c0.7,3.4,0.9,6,1.1,8.1c0.7,7.6,1.1,11.4,1.1,12.2c0.4,7.9,0.2,14.9,0,18.8c-0.3,6-0.7,8.3,0,8.5c1.1,0.3,3.3-4.8,8-14.1
	c4.1-8.2,6.2-12.3,8-15.2c6.2-10.1,17.4-22.4,22.9-20c2.7,1.2,4.7,6.3,5.4,9.3c0.2,0.9,0.3,1.9,0.4,3.2c0.4,3.5,0.3,6.2,0.3,7.7
	c-0.2,9.9-0.8,15-0.8,15c-1.4,9.6-4.6,30.6-6.6,51.5c-1.1,11.6-1.4,20.2,4,25c0.7,0.6,3.1,2.5,6.4,2.9c7.2,0.7,13.1-6.3,16.3-10.3
	c4.6-5.6,6.8-10.9,8.1-14.1c6.3-15.7,9.4-23.6,12.1-31.8c2.7-8.1,6.8-19.9,12.8-34.1"/>
</svg>
